<svg width="300" height="300" viewBox="0 0 300 300" fill="none" xmlns="http://www.w3.org/2000/svg">
<rect width="300" height="300" fill="#4E4E4E"/>
<path d="M83.328 169.512C80.0427 169.512 77.1413 168.808 74.624 167.4C72.1067 165.992 70.144 164.008 68.736 161.448C67.3707 158.845 66.688 155.859 66.688 152.488V140.712C66.688 137.341 67.3707 134.376 68.736 131.816C70.144 129.213 72.1067 127.208 74.624 125.8C77.184 124.392 80.128 123.688 83.456 123.688H90.624C93.824 123.688 96.64 124.328 99.072 125.608C101.504 126.888 103.381 128.701 104.704 131.048C106.069 133.395 106.752 136.104 106.752 139.176H98.048C98.048 136.872 97.3653 135.016 96 133.608C94.6347 132.2 92.8427 131.496 90.624 131.496H83.456C81.0667 131.496 79.1467 132.392 77.696 134.184C76.2453 135.933 75.52 138.237 75.52 141.096V152.104C75.52 154.963 76.224 157.288 77.632 159.08C79.0827 160.829 80.9813 161.704 83.328 161.704H90.88C93.056 161.704 94.848 160.915 96.256 159.336C97.7067 157.757 98.432 155.795 98.432 153.448V152.04H86.016V144.36H107.136V153.448C107.136 156.563 106.453 159.336 105.088 161.768C103.723 164.2 101.803 166.099 99.328 167.464C96.8533 168.829 94.0373 169.512 90.88 169.512H83.328ZM119.739 169C117.861 169 116.347 168.467 115.195 167.4C114.085 166.291 113.531 164.84 113.531 163.048V124.2H122.363V161.32H146.683V169H119.739ZM157.364 169C155.529 169 154.036 168.445 152.884 167.336C151.732 166.227 151.156 164.776 151.156 162.984V124.2H185.332V131.88H159.988V142.248H183.412V149.928H159.988V161.32H185.332V169H157.364ZM197.551 169C195.716 169 194.223 168.445 193.071 167.336C191.919 166.227 191.343 164.776 191.343 162.984V124.2H225.519V131.88H200.175V142.248H223.599V149.928H200.175V161.32H225.519V169H197.551Z" fill="white"/>
</svg>
