<svg width="300" height="300" viewBox="0 0 300 300" fill="none" xmlns="http://www.w3.org/2000/svg">
<rect width="300" height="300" fill="#FAFA33"/>
<path d="M227.5 102.375H73.5C62.8685 102.375 54.25 110.994 54.25 121.625V217.875C54.25 228.506 62.8685 237.125 73.5 237.125H227.5C238.131 237.125 246.75 228.506 246.75 217.875V121.625C246.75 110.994 238.131 102.375 227.5 102.375Z" stroke="white" stroke-width="15" stroke-linecap="round" stroke-linejoin="round"/>
<path d="M189 237.125V83.125C189 78.0196 186.972 73.1233 183.362 69.5132C179.752 65.9031 174.855 63.875 169.75 63.875H131.25C126.145 63.875 121.248 65.9031 117.638 69.5132C114.028 73.1233 112 78.0196 112 83.125V237.125" stroke="white" stroke-width="15" stroke-linecap="round" stroke-linejoin="round"/>
</svg>
