<svg width="300" height="300" viewBox="0 0 300 300" fill="none" xmlns="http://www.w3.org/2000/svg">
<rect width="300" height="300" fill="#CE4A00"/>
<path d="M116.872 170L102.088 151.184L97.8 155.792V170H88.968V125.2H97.8V144.528L115.592 125.2H126.472L108.04 144.848L127.624 170H116.872ZM143.613 147.152L128.637 125.2H138.685L148.669 139.92L158.653 125.2H168.637L153.661 147.152L169.277 170H159.229L148.669 154.384L138.045 170H127.997L143.613 147.152ZM173.093 125.2H196.901C200.784 125.2 203.898 126.245 206.245 128.336C208.634 130.427 209.829 133.179 209.829 136.592V141.072C209.829 143.291 209.189 145.232 207.909 146.896C206.672 148.517 204.858 149.755 202.469 150.608V150.736C203.834 151.632 204.858 152.656 205.541 153.808C206.266 154.96 206.97 156.56 207.653 158.608L211.237 170H202.085L198.693 159.376C198.138 157.541 197.37 156.176 196.389 155.28C195.408 154.384 194.192 153.936 192.741 153.936H181.925V170H173.093V125.2ZM195.237 146.32C197.029 146.32 198.437 145.851 199.461 144.912C200.485 143.931 200.997 142.672 200.997 141.136V136.976C200.997 135.739 200.613 134.757 199.845 134.032C199.077 133.264 198.053 132.88 196.773 132.88H181.925V146.32H195.237Z" fill="white"/>
</svg>
